# xmcd CD database file
#
# Track frame offsets:
#	150
#	12947
#	25757
#	39694
#	55829
#	67386
#	78972
#	92299
#	105962
#	117874
#	130564
#	142560
#	156247
#	168634
#	183993
#	198559
#	211563
#	223823
#
# Disc length: 3179 seconds
#
# Revision: 0
# Processed by: cddbd v1.5.2PL0 Copyright (c) Steve Scherf et al.
# Submitted via: CDex 1.70beta2
#
DISCID=e90c6912
DTITLE=Ray Charles - The Genius At His Best CD03
DYEAR=1900
DGENRE=Blues
TTITLE0=I Can't Do No More
TTITLE1=The Snow Is Falling
TTITLE2=Misery In My Heart
TTITLE3=Let Me Hear You Call My Name
TTITLE4=Roly Poly
TTITLE5=Guitar Blues
TTITLE6=Low Society
TTITLE7=Worried Life Blues
TTITLE8=Roll With Me Baby
TTITLE9=Jumpin' In The Mornin'
TTITLE10=The Sun's Gonna Shine Again
TTITLE11=The Midnight Hour
TTITLE12=It Should've Been Me
TTITLE13=Sinner's Prayer
TTITLE14=Losing Hand
TTITLE15=Heartbreaker
TTITLE16=Mess Around
TTITLE17=Funny (But I Still Love You)
EXTD=
EXTT0=
EXTT1=
EXTT2=
EXTT3=
EXTT4=
EXTT5=
EXTT6=
EXTT7=
EXTT8=
EXTT9=
EXTT10=
EXTT11=
EXTT12=
EXTT13=
EXTT14=
EXTT15=
EXTT16=
EXTT17=
PLAYORDER=
